<svg xmlns="http://www.w3.org/2000/svg" width="1008" height="198"><g fill="none" fill-rule="evenodd"><path fill="#1A1919" d="M62.795 99.929c4.833-2.777 7.66-1.851 8.485 2.777.41 1.956-.617 3.857-3.085 5.708a36.42 36.42 0 0 1-3.163 2.084c-.979.565-1.878 1.002-2.7 1.31-2.367 1.03-4.5 1.775-6.402 2.238-1.905.463-3.575.798-5.014 1.002a109.71 109.71 0 0 1-8.485.308c-2.985 0-6.12-.255-9.41-.771-6.688-1.026-12.088-3.341-16.2-6.942-3.806-3.187-6.942-7.043-9.41-11.571-2.469-4.523-4.474-9.102-6.017-13.73l-.309-.926C.16 78.435-.173 75.118.083 71.466c.255-3.65.332-7.07.231-10.26 0-2.468.05-4.651.154-6.556.101-1.902.36-3.521.772-4.86.718-2.57 2.364-6.066 4.936-10.491 2.777-4.937 5.913-9.203 9.411-12.805 3.495-3.597 8.227-6.016 14.194-7.251 1.542-.203 4.215-.82 8.022-1.851a33.09 33.09 0 0 1 3.78-.771c1.388-.205 2.954-.255 4.705-.155 1.335 0 2.904.155 4.705.463 1.798.309 3.881.722 6.248 1.235 1.644.516 4.166 1.596 7.56 3.239 3.186 1.339 5.091 3.139 5.708 5.4.205.825.101 1.697-.309 2.622-.925 1.543-2.005 2.469-3.239 2.777-.72.208-1.62.208-2.7 0-1.08-.203-2.39-.717-3.934-1.542a89.378 89.378 0 0 0-5.708-2.623 29.19 29.19 0 0 0-5.323-1.62 22.215 22.215 0 0 0-5.554-.385c-1.905.104-3.987.462-6.248 1.079-5.349 1.648-9.102 3.037-11.262 4.166-2.264 1.234-4.937 4.165-8.022 8.793-2.469 3.602-4.347 7.383-5.63 11.34a46.629 46.629 0 0 0-2.238 12.188 47.895 47.895 0 0 0 1.003 12.418 51.412 51.412 0 0 0 4.088 11.88v.154h.154c4.421 8.23 10.746 13.372 18.976 15.427 5.963 1.442 10.591 1.75 13.885.926a19.263 19.263 0 0 0 2.622-.463c.822-.204 1.697-.41 2.623-.617 3.495-.718 6.53-1.851 9.102-3.394M198.48 78.737c.1.517.177 1.185.23 2.006.051.825.077 1.802.077 2.93v8.023c0 2.882-.053 5.427-.154 7.638a120.373 120.373 0 0 0-.154 5.476 94.47 94.47 0 0 0 .463 14.347c.308 3.394.332 6.712.077 9.952-.258 3.24-.386 6.556-.386 9.95-.104 3.807-.386 7.25-.849 10.336-.462 3.086-1.157 6.48-2.082 10.182l-.154.617v.309c-.72 1.75-2.214 3.91-4.474 6.479-12.755 10.9-25.509 11.725-38.26 2.469-2.985-2.364-4.424-4.678-4.32-6.943.101-.82 1.026-1.797 2.777-2.931.821-.512 1.643-.666 2.468-.463.718.208 1.543.54 2.47 1.004.924.463 1.796.848 2.621 1.156 2.777 1.648 5.708 2.623 8.794 2.93 7.506.619 12.96-.82 16.353-4.318 2.261-2.364 3.703-5.268 4.32-8.716.617-3.445.925-6.712.925-9.797.101-3.186.178-6.375.232-9.565.05-3.187.178-6.375.385-9.565.101-1.747.101-3.804 0-6.171-.104-2.364-.362-5.141-.77-8.331l-1.698-13.113c-.309-1.644-.362-4.575-.154-8.794.308-4.011 1.388-6.735 3.24-8.177 4.111-2.777 6.788-2.415 8.022 1.08M297.214 125.483a212.297 212.297 0 0 1-3.008-7.636 60.571 60.571 0 0 0-3.47-7.638c-2.469-4.73-5.196-6.991-8.178-6.788-1.133 0-2.136.309-3.008.926a9.269 9.269 0 0 0-2.237 2.238 22.008 22.008 0 0 0-1.697 2.853 22.378 22.378 0 0 0-1.234 2.93 204.215 204.215 0 0 0-3.24 9.566 866.339 866.339 0 0 0-2.93 9.565c-.722 2.265-.618 3.962.307 5.09.617 1.032 2.211 1.649 4.783 1.853 2.261.104 4.266.18 6.017.232 1.747.054 3.186.027 4.32-.078 2.26 0 5.245-.31 8.947-.926 3.804-.617 6.067-2.314 6.788-5.091.31-1.643.101-3.032-.617-4.165-.208-.41-.489-.9-.848-1.465-.362-.563-.594-1.053-.695-1.466Zm30.547 43.196c0 2.574-1.08 4.219-3.24 4.937-1.85.825-3.498.208-4.937-1.851a33.162 33.162 0 0 1-1.774-2.777 23.838 23.838 0 0 1-1.157-2.314 535.885 535.885 0 0 0-3.857-8.1c-1.133-2.313-2.264-4.19-3.394-5.631-2.468-3.394-5.195-5.553-8.176-6.48-2.573-.82-6.688-.925-12.342-.308-3.294.414-6.403.67-9.334.772a74.22 74.22 0 0 1-8.408-.155c-5.966-.41-10.39 1.494-13.268 5.709l-.308.462-.154.309a46.414 46.414 0 0 0-2.546 6.095 44.392 44.392 0 0 1-2.39 5.784l-3.24 5.09c-1.443 2.16-2.932 3.346-4.475 3.549-.72.309-1.75-.1-3.085-1.234a4.087 4.087 0 0 1-1.157-2.236 7.9 7.9 0 0 1 0-2.701c.154-.925.41-1.873.771-2.853.36-.977.694-1.824 1.003-2.546l3.702-7.714a402.495 402.495 0 0 0 10.105-22.524 719.967 719.967 0 0 1 9.951-22.987 68.935 68.935 0 0 0 1.62-3.78c.463-1.18.95-2.337 1.465-3.471 1.131-2.777 2.261-5.576 3.395-8.407a93.625 93.625 0 0 1 3.856-8.41l2.315-3.547c1.13-1.851 2.21-2.826 3.24-2.931 1.026-.204 2.364.67 4.01 2.622 1.748 2.059 3.418 4.474 5.014 7.25 1.593 2.778 2.955 5.4 4.09 7.869a476.247 476.247 0 0 1 10.104 22.91 384.662 384.662 0 0 0 10.105 22.6 286.466 286.466 0 0 1 3.316 6.868 91.317 91.317 0 0 0 3.472 6.71 86.766 86.766 0 0 0 1.928 4.473 169.484 169.484 0 0 1 1.93 4.32c.512 1.134.924 2.059 1.233 2.777.308.722.513 1.339.617 1.85ZM428.811 159.423c4.833-2.777 7.66-1.851 8.485 2.777.41 1.956-.617 3.857-3.086 5.708a36.263 36.263 0 0 1-3.162 2.084c-.98.565-1.878 1.002-2.7 1.31-2.368 1.03-4.5 1.775-6.403 2.238-1.904.463-3.575.798-5.013 1.002-2.677.208-5.504.308-8.486.308-2.984 0-6.12-.255-9.41-.771-6.688-1.026-12.087-3.341-16.199-6.942-3.807-3.187-6.943-7.044-9.41-11.571-2.469-4.523-4.475-9.102-6.018-13.73l-.308-.926c-.926-2.981-1.258-6.3-1.003-9.95.255-3.65.332-7.07.231-10.26 0-2.468.051-4.651.155-6.556.101-1.902.36-3.521.771-4.86.718-2.57 2.365-6.066 4.937-10.491 2.777-4.937 5.913-9.203 9.411-12.805 3.494-3.597 8.227-6.016 14.193-7.251 1.543-.203 4.216-.82 8.022-1.851a32.663 32.663 0 0 1 3.78-.771c1.388-.205 2.955-.255 4.705-.155 1.335 0 2.905.155 4.706.463 1.797.309 3.88.722 6.248 1.234 1.643.517 4.165 1.597 7.56 3.24 3.186 1.339 5.09 3.139 5.707 5.4.205.825.101 1.697-.308 2.622-.926 1.543-2.006 2.469-3.24 2.777-.72.208-1.62.208-2.7 0-1.08-.203-2.39-.718-3.934-1.542a89.125 89.125 0 0 0-5.708-2.623 29.18 29.18 0 0 0-5.322-1.62 22.265 22.265 0 0 0-5.554-.386c-1.905.105-3.988.463-6.248 1.08-5.35 1.648-9.103 3.036-11.262 4.166-2.264 1.234-4.937 4.165-8.023 8.793-2.468 3.602-4.346 7.383-5.63 11.34a46.67 46.67 0 0 0-2.238 12.188 47.983 47.983 0 0 0 1.003 12.418 51.412 51.412 0 0 0 4.088 11.88v.154h.155c4.42 8.23 10.745 13.372 18.975 15.427 5.964 1.442 10.592 1.75 13.885.926a19.25 19.25 0 0 0 2.623-.463c.822-.204 1.697-.41 2.622-.617 3.495-.718 6.53-1.851 9.103-3.394M520.141 85.217c-5.554 0-10.568.67-15.042 2.005-4.474 1.34-8.51 3.808-12.11 7.406-4.937 4.936-8.076 10.414-9.41 16.43-1.339 6.018-1.289 12.728.153 20.133l1.39 7.559c.204 1.442.408 2.6.616 3.472.205.875.36 1.416.463 1.619.617 2.265 1.851 4.425 3.702 6.48a141.654 141.654 0 0 0 5.091 5.399 115.5 115.5 0 0 0 2.47 2.7 22.753 22.753 0 0 0 2.621 2.39c1.543 1.34 4.112 2.575 7.714 3.704h.155c1.952.516 4.138.695 6.556.54 2.415-.153 5.115-.59 8.1-1.311a25.59 25.59 0 0 1 4.396-.848 29.223 29.223 0 0 0 4.552-.85c3.803-.925 6.992-2.98 9.565-6.17h.154v-.155c1.643-1.952 3.032-4.42 4.165-7.405 1.027-2.98 1.798-4.883 2.314-5.708 5.142-10.077 5.913-20.981 2.314-32.706l-.154-.154c-.412-1.13-.825-2.21-1.234-3.24-.412-1.027-.979-2.055-1.697-3.086-4.01-6.066-8.794-10.437-14.348-13.113-.207-.101-.67-.358-1.388-.771a105.68 105.68 0 0 1-3.086-1.852c-1.85-1.13-4.473-1.952-7.868-2.468h-.154Zm-15.582 88.399a46.517 46.517 0 0 1-6.248-2.39 51.382 51.382 0 0 1-6.17-3.394 41.802 41.802 0 0 1-5.632-4.32 28.037 28.037 0 0 1-4.474-5.17c-1.646-2.568-2.83-5.218-3.548-7.943-.72-2.724-1.75-5.527-3.085-8.41-1.03-2.26-1.597-4.728-1.697-7.404a108.683 108.683 0 0 0-.386-3.78 31.8 31.8 0 0 1-.232-3.78 113.222 113.222 0 0 1-.23-3.24 41.468 41.468 0 0 1-.078-2.314c0-1.952.127-3.984.386-6.092.255-2.107.64-4.293 1.157-6.558.1-.718.41-1.644.925-2.777a45.841 45.841 0 0 1 3.934-8.716 50.336 50.336 0 0 1 5.477-7.637c4.011-4.524 9.615-8.535 16.816-12.034a23.844 23.844 0 0 1 10.336-2.005c2.261.208 4.525.516 6.788.925 1.852.309 3.472.54 4.86.696a43.61 43.61 0 0 1 3.626.539c7.918.925 14.911 4.424 20.981 10.49a39.98 39.98 0 0 1 3.78 4.398 71.599 71.599 0 0 1 3.471 5.167l.771 1.235c.101.308.205.567.31.77.1.209.203.414.307.618 1.748 4.116 3.341 9.257 4.783 15.427 1.335 5.762 1.542 11.059.617 15.89a65.774 65.774 0 0 1-2.314 8.023 111.101 111.101 0 0 0-2.469 7.714c-4.01 13.784-13.063 22.474-27.152 26.072l-1.234.309c-.825.207-1.85.413-3.086.617a102.18 102.18 0 0 1-4.319.617 43.885 43.885 0 0 1-8.254.154c-2.83-.203-5.735-.771-8.717-1.697ZM613.786 147.544a105.202 105.202 0 0 0 .308 8.176c.101 3.703.772 5.968 2.006 6.788.31.208.926.463 1.851.772.926.308 2.107.568 3.55.77a15.89 15.89 0 0 0 3.161.31c1.08 0 2.184.053 3.317.154 1.027 0 2.338.105 3.934.309 1.593.207 3.471.308 5.631.308a47.05 47.05 0 0 0 8.485-.463 69.97 69.97 0 0 0 8.794-1.851c5.963-1.644 9.77-5.758 11.416-12.342v-.154c.31-1.335.513-2.827.617-4.474a31.929 31.929 0 0 0-.077-4.937 21.41 21.41 0 0 0-1.003-4.783 14.623 14.623 0 0 0-2.159-4.165l-.155-.154a17.46 17.46 0 0 0-5.245-3.625 25.378 25.378 0 0 0-6.17-1.851 46.633 46.633 0 0 0-6.558-.617 83.824 83.824 0 0 0-6.248.076 59.34 59.34 0 0 1-4.32.463c-1.44.105-2.83.208-4.165.308-1.442.208-2.727.309-3.857.309h-3.24c-3.702-.101-6.12.413-7.25 1.543-1.75 1.442-2.623 3.857-2.623 7.25v11.88Zm40.42-47.671v-.154c-.926-2.777-2.083-5.013-3.47-6.71-1.39-1.697-3.01-3.032-4.86-4.011-1.852-.977-3.91-1.621-6.172-1.93-2.264-.308-4.783-.463-7.559-.463-3.19 0-6.379.155-9.566.463-4.115.414-6.788 1.75-8.022 4.01-.825 1.544-1.056 3.268-.694 5.17.36 1.905.59 3.678.694 5.322.101.926.128 2.006.077 3.24a47.698 47.698 0 0 1-.385 4.165c-.309 2.985.101 5.196 1.234 6.634a5.73 5.73 0 0 0 2.468 2.084c1.027.462 2.16.798 3.394 1 1.234.209 2.47.31 3.703.31h3.24c1.952 0 4.011-.05 6.171-.154 2.16-.101 4.524-.31 7.096-.617 5.246-.821 9.05-2.932 11.417-6.326 1.026-1.335 1.62-2.826 1.774-4.474.154-1.643.127-3.443-.077-5.4l-.155-1.388-.308-.771Zm10.953 9.719a16.5 16.5 0 0 0-.77 2.238 38.997 38.997 0 0 1-.618 2.082c-.617 2.16-.516 3.807.308 4.937.31.516 1.44 1.287 3.394 2.314.926.617 2.107 1.802 3.55 3.548 5.14 6.687 6.787 15.582 4.936 26.69-1.134 6.378-4.166 11.725-9.103 16.044-3.6 3.293-6.275 5.09-8.022 5.4-.926.208-2.187.362-3.78.463-1.596.105-3.575.207-5.939.308-3.807.105-7.586.208-11.339.309-3.757.105-7.483.154-11.185.154-3.086 0-5.786-.023-8.1-.076-2.314-.052-4.242-.128-5.785-.233-.825 0-2.083-.1-3.78-.308-1.697-.204-2.854-.512-3.47-.926l-.464-.925c-.208-.31-.362-.694-.463-1.156a73.26 73.26 0 0 0-.308-1.313c-.208-1.026-.309-2.363-.309-4.011V144.15c0-2.16-.077-4.32-.23-6.48a93.23 93.23 0 0 1-.233-6.634c.205-4.73.333-9.433.386-14.115.051-4.68.024-9.49-.077-14.425 0-2.777.077-5.604.231-8.485.155-2.878.333-5.71.54-8.486.101-.925.128-1.952.078-3.085a14.821 14.821 0 0 1 .231-3.394c.41-.617.718-.975.926-1.08.925-.718 2.287-1.08 4.088-1.08h4.551c1.335.105 2.7.208 4.088.309 1.39.104 2.801.154 4.243.154 2.673.105 5.5.232 8.485.387 2.982.154 6.117.438 9.411.847 6.58.617 12.134 2.623 16.661 6.017 5.142 4.01 7.92 10.39 8.331 19.13 0 1.339-.154 3.293-.463 5.862ZM784.722 159.886c-1.75 2.16-3.42 4.064-5.014 5.708-1.596 1.648-3.266 3.063-5.014 4.243a26.67 26.67 0 0 1-5.785 2.932c-2.11.77-4.5 1.31-7.174 1.619a35.442 35.442 0 0 1-4.165.386c-1.442.054-2.985-.024-4.629-.232a73.887 73.887 0 0 0-6.633-.31c-2.16 0-4.373-.254-6.634-.77-4.937-1.13-9.052-2.826-12.342-5.091-3.293-2.261-5.812-5.192-7.56-8.794-2.263-4.937-.979-7.506 3.857-7.714.822 0 1.775.595 2.854 1.776a87.943 87.943 0 0 0 2.546 2.698c2.16 2.16 3.394 3.345 3.703 3.549h.154v.154c5.037 3.499 11.725 5.245 20.055 5.245h.31c3.494 0 7.968-.718 13.421-2.16 5.346-1.334 8.894-4.06 10.645-8.176.926-2.468.926-5.14 0-8.022v-.155c-2.572-5.45-7.56-9.102-14.965-10.953l-18.976-4.937c-2.676-.617-5.915-1.901-9.719-3.857a157.909 157.909 0 0 1-5.09-2.777c-1.443-.82-2.624-1.643-3.549-2.468-4.219-3.086-6.687-6.171-7.405-9.257-.104-.512-.155-1.234-.155-2.16v-3.393c0-1.438.101-2.853.31-4.242.204-1.388.408-2.855.616-4.398.617-4.73 2.623-8.948 6.017-12.65 1.542-1.543 3.417-2.853 5.631-3.933 2.21-1.08 4.343-2.084 6.402-3.01a22.108 22.108 0 0 1 9.025-2.081c3.136-.052 6.248-.026 9.334.076 10.078.308 17.946 3.857 23.604 10.645 2.57 3.19 3.548 5.813 2.931 7.868l-1.08.925c-1.647.825-3.602.26-5.862-1.697a10.804 10.804 0 0 1-1.697-1.388c-.517-.512-1.03-1.027-1.543-1.543-.516-.512-1.184-1.053-2.006-1.62a24.256 24.256 0 0 0-2.777-1.62l-.308-.308h-.463a50.062 50.062 0 0 0-11.648-2.006c-3.96-.203-8.049.154-12.265 1.08-5.04 1.134-8.897 3.217-11.57 6.249-2.676 3.034-4.01 7.072-4.01 12.11v.308l.153.309c.41 6.379 5.346 10.904 14.81 13.576l4.474 1.234 11.417 3.857a74.984 74.984 0 0 1 5.245 2.084c1.747.77 3.6 1.569 5.554 2.39a317.698 317.698 0 0 1 8.022 3.857 69.967 69.967 0 0 1 6.788 3.857c1.44.925 2.546 2.059 3.317 3.394a12.795 12.795 0 0 1 1.543 4.32c.255 1.542.36 3.139.308 4.782-.053 1.648-.23 3.139-.54 4.474a13.948 13.948 0 0 1-1.002 3.24 23.174 23.174 0 0 1-1.466 2.777M825.451 164.514a782.01 782.01 0 0 1-.078-18.822c.054-6.271.078-12.545.078-18.821v-5.4c0-2.777-.078-5.576-.232-8.407a65.828 65.828 0 0 1 .077-8.41c.104-3.084.155-6.143.155-9.177 0-3.032.05-6.095.154-9.18 0-3.703.872-6.272 2.622-7.714 1.335-1.026 3.703-1.543 7.097-1.543 1.748-.1 3.264-.177 4.551-.23a83.718 83.718 0 0 1 3.317-.078c4.011-.101 8.022-.076 12.034.078 4.011.154 8.022.18 12.033.076 2.16-.101 4.32-.177 6.48-.23 2.16-.052 4.266.026 6.325.23l7.868.463c.925.105 1.72.154 2.391.154.667 0 1.258.105 1.774.309 2.16 1.133 3.186 2.727 3.086 4.782-.104.926-.463 1.675-1.08 2.238a6.775 6.775 0 0 1-2.083 1.31 9.533 9.533 0 0 1-2.39.618 17.3 17.3 0 0 1-2.16.154c-6.276 0-12.497-.154-18.668-.463-.617-.101-1.389-.154-2.314-.154h-12.034c-2.367 0-4.474.027-6.325.078-1.85.053-3.394.076-4.628.076-1.75.105-3.19.335-4.32.693-1.133.356-1.955.944-2.468 1.76-.825 1.23-1.134 2.764-.926 4.605v2.149c0 .613-.054 1.179-.154 1.689a41.668 41.668 0 0 0-.463 3.912c-.104 1.383-.104 2.89 0 4.528 0 2.863 1.13 5.266 3.394 7.21 1.851 1.639 5.192 2.303 10.028 1.995a86.166 86.166 0 0 0 6.402-.54 38.418 38.418 0 0 1 6.402-.232c.926 0 2.134.027 3.626.079 1.49.053 3.263.026 5.322-.08 4.112-.1 6.89.63 8.331 2.196.513.733.718 1.932.617 3.606-.308 1.88-1.75 3.03-4.319 3.448-2.368.417-4.27.625-5.708.625a63.239 63.239 0 0 1-5.477.078 66.57 66.57 0 0 0-5.477.076 51.05 51.05 0 0 1-6.942.155 194.625 194.625 0 0 1-7.405-.463c-.309 0-.67-.023-1.08-.076a8.78 8.78 0 0 0-1.08-.078h-.155c-1.133-.204-2.263.053-3.394.773-1.85 1.139-2.88 3.098-3.085 5.885-.208 2.684-.208 5.009 0 6.969.101 1.138.178 2.17.231 3.098.051.93.024 1.755-.077 2.477a150.004 150.004 0 0 0-.54 4.57 157.852 157.852 0 0 1-.54 4.567c-.308 3.924.205 6.866 1.543 8.826 1.747 2.378 4.782 3.563 9.102 3.563 3.394 0 6.84-.076 10.337-.23 3.494-.155 6.992-.334 10.49-.541 3.186-.101 6.453 0 9.797.308 3.34.309 6.657.463 9.95.463 1.235 0 2.878-.023 4.937-.076 2.056-.052 3.65.228 4.783.835 1.026.609 1.593 1.516 1.697 2.732 1.13 3.643-.463 5.564-4.783 5.765-6.788.309-13.448.414-19.978.309a638.5 638.5 0 0 0-19.67 0c-.413 0-.799.027-1.157.078a6.774 6.774 0 0 1-1.003.076h-6.094c-1.697 0-3.112-.05-4.243-.154-.72 0-1.569-.023-2.545-.076-.979-.052-2.083-.128-3.317-.233a44.77 44.77 0 0 1-2.546-.308c-.67-.101-1.157-.204-1.465-.31-3.086-.924-4.628-3.802-4.628-8.638M940.385 170.53c-.412 1.852-2.005 2.932-4.782 3.24-2.88-.1-4.32-1.697-4.32-4.782 0-8.022-.178-16.121-.54-24.297a166.469 166.469 0 0 1 .694-24.3v-.154c0-2.363.027-4.677.077-6.942a55.395 55.395 0 0 0-.23-6.634l-1.235-11.725c-.309-3.29.207-6.837 1.542-10.645 1.027-2.672 2.415-4.266 4.166-4.782 1.44-.31 2.931.413 4.474 2.16 1.44 1.542 2.52 2.88 3.24 4.01a49.72 49.72 0 0 0 4.088 5.246 110.523 110.523 0 0 0 4.088 4.32c1.13 1.339 2.288 2.495 3.471 3.472a35.333 35.333 0 0 1 3.471 3.316c1.027 1.03 2.16 2.34 3.395 3.935 1.234 1.596 2.57 3.47 4.011 5.63l6.788 10.49a43.439 43.439 0 0 1 1.62 2.469 92.082 92.082 0 0 0 2.082 3.24l.155.154a104.406 104.406 0 0 0 6.788 8.176 68.512 68.512 0 0 0 3.396 3.473c1.13 1.08 2.31 2.186 3.55 3.316 1.13 1.339 2.46 1.75 4.01 1.234 2.36-.617 3.49-2.981 3.39-7.097 0-1.026-.07-2.106-.23-3.24-.15-1.13-.23-2.26-.23-3.394-.1-.82-.21-1.62-.31-2.39-.1-.771-.15-1.621-.15-2.546 0-.41-.03-.873-.08-1.39-.05-.511-.08-1.08-.08-1.696.41-9.05.1-17.482-.92-25.301-.11-.512-.16-1.362-.16-2.545 0-1.18.1-2.7.31-4.552.1-2.26.41-4.677.93-7.251.3-3.702 1.95-5.553 4.93-5.553 3.29 0 4.94 1.956 4.94 5.862.1 3.19.23 6.403.38 9.643.16 3.24.24 6.455.24 9.64.1 4.734 0 9.466-.31 14.195-.31 4.733-.36 9.464-.16 14.193.21 3.19.29 6.325.23 9.41-.05 3.086-.13 6.172-.23 9.257 0 1.75.03 3.472.08 5.169.05 1.697.08 3.316.08 4.859v6.17c-.11.618-.18 1.235-.23 1.852-.06.617-.08 1.185-.08 1.697-.1.105-.16.208-.16.309 0 .105-.05.154-.15.154-1.13 1.543-2.88 2.314-5.24 2.314-2.78.208-4.89-.666-6.33-2.623a49.593 49.593 0 0 1-4.24-6.325 75.876 75.876 0 0 0-4.25-6.634 489.896 489.896 0 0 0-6.089-7.944 350.664 350.664 0 0 0-7.328-9.026c-1.03-1.13-2.468-3.186-4.32-6.171l-5.399-8.64a589.572 589.572 0 0 1-4.01-6.246 107.791 107.791 0 0 0-4.167-6.095 136.904 136.904 0 0 1-2.005-2.39 13.703 13.703 0 0 0-2.314-2.238 8.863 8.863 0 0 0-2.777-1.39 5.269 5.269 0 0 0-3.086 0c-2.777.826-4.065 3.654-3.857 8.486.101 3.499.178 6.788.232 9.874.05 3.085.178 5.967.385 8.639a30.52 30.52 0 0 1-.077 6.48 53.336 53.336 0 0 0-.386 6.325v12.033c0 2.574-.077 4.888-.23 6.943-.155 2.059-.336 3.91-.54 5.554"/><path fill="#131514" d="M167.648 4.378c-.026-1.03-.094-3.764-2.094-4.298-1.768-.461-3.955.885-8.9 9.016a430.992 430.992 0 0 0-11.788 20.12 558.57 558.57 0 0 0-10.448 19.97l-.18.344a516.885 516.885 0 0 1-10.003 19.13 521.272 521.272 0 0 0-10.059 19.243 4874.697 4874.697 0 0 1-7.256 14.723 1357.689 1357.689 0 0 1-5.307 10.624 496.284 496.284 0 0 1-6.606 12.853 1331.843 1331.843 0 0 1-7.506 13.908 73.915 73.915 0 0 0-2.015 3.569l-7.785 14.642a567.802 567.802 0 0 1-5.17 9.509 439.337 439.337 0 0 1-3.396 6.279 156.032 156.032 0 0 0-3.16 6.053c-3.077 5.783-3.47 6.672-3.578 6.954-2.086 4.593-2.316 7.753-.704 9.659l.427.506.662-.004c3.08-.015 6.361-3.495 10.321-10.944a6876.709 6876.709 0 0 0 17.468-32.637l17.375-32.678a729.203 729.203 0 0 0 9.584-18.671 553.404 553.404 0 0 1 6.526-12.702 698.419 698.419 0 0 1 5.806-10.705 947.436 947.436 0 0 0 4.118-7.315c1.59-2.844 3.453-6.206 5.602-10.104a828.714 828.714 0 0 0 3.896-7.436c1.5-2.891 3.26-6.308 5.282-10.258 1.468-2.9 2.762-5.441 3.877-7.612a480.681 480.681 0 0 1 2.98-5.713l5.057-9.514c2.973-5.151 4.85-8.758 5.745-11.04a20.462 20.462 0 0 0 1.223-5.297l.008-.087-.002-.087"/></g></svg>